<svg xmlns="http://www.w3.org/2000/svg" xmlns:xlink="http://www.w3.org/1999/xlink" version="1.1" style="shape-rendering:geometricPrecision; text-rendering:geometricPrecision; image-rendering:optimizeQuality; fill-rule:evenodd; clip-rule:evenodd" viewBox="125.5 99.48 250.09 296.85">
<g><path style="opacity:0.784" fill="#82acb7" d="M 236.5,100.5 C 240.653,99.8343 244.987,99.5009 249.5,99.5C 256.724,99.372 263.724,100.039 270.5,101.5C 266.884,102.241 263.217,102.075 259.5,101C 251.841,100.5 244.174,100.334 236.5,100.5 Z"/></g>
<g><path style="opacity:1" fill="#5d97a8" d="M 236.5,100.5 C 244.174,100.334 251.841,100.5 259.5,101C 263.217,102.075 266.884,102.241 270.5,101.5C 287.608,103.977 303.275,109.977 317.5,119.5C 315.599,119.567 313.766,119.233 312,118.5C 309.953,119.609 307.787,120.276 305.5,120.5C 306.72,122.581 307.386,124.581 307.5,126.5C 308.665,127.584 309.998,128.417 311.5,129C 310.944,129.383 310.611,129.883 310.5,130.5C 295.964,121.435 280.298,115.768 263.5,113.5C 268.844,113.666 274.177,113.499 279.5,113C 276.993,112.907 274.826,112.074 273,110.5C 272.586,110.957 272.086,111.291 271.5,111.5C 264.141,110.547 256.808,109.547 249.5,108.5C 249.5,107.5 249.5,106.5 249.5,105.5C 243.953,106.101 238.787,105.101 234,102.5C 229.53,103.264 225.03,103.597 220.5,103.5C 225.551,101.656 230.884,100.656 236.5,100.5 Z"/></g>
<g><path style="opacity:1" fill="#5f9aab" d="M 263.5,113.5 C 248.71,112.966 234.044,113.966 219.5,116.5C 217.158,116.225 217.158,115.392 219.5,114C 218.437,112.812 217.103,112.312 215.5,112.5C 215.843,116.134 214.177,117.801 210.5,117.5C 209.167,117.167 207.833,116.833 206.5,116.5C 207.309,114.929 207.643,113.262 207.5,111.5C 211.456,110.947 211.456,110.114 207.5,109C 208.649,107.256 209.983,107.089 211.5,108.5C 215.158,105.699 218.492,106.032 221.5,109.5C 225.122,110.659 228.789,110.825 232.5,110C 231.141,108.796 230.141,107.296 229.5,105.5C 225.824,107.102 222.824,106.435 220.5,103.5C 225.03,103.597 229.53,103.264 234,102.5C 238.787,105.101 243.953,106.101 249.5,105.5C 249.5,106.5 249.5,107.5 249.5,108.5C 256.808,109.547 264.141,110.547 271.5,111.5C 272.086,111.291 272.586,110.957 273,110.5C 274.826,112.074 276.993,112.907 279.5,113C 274.177,113.499 268.844,113.666 263.5,113.5 Z"/></g>
<g><path style="opacity:1" fill="#5e98a9" d="M 220.5,103.5 C 222.824,106.435 225.824,107.102 229.5,105.5C 230.141,107.296 231.141,108.796 232.5,110C 228.789,110.825 225.122,110.659 221.5,109.5C 218.492,106.032 215.158,105.699 211.5,108.5C 209.983,107.089 208.649,107.256 207.5,109C 211.456,110.114 211.456,110.947 207.5,111.5C 207.643,113.262 207.309,114.929 206.5,116.5C 207.833,116.833 209.167,117.167 210.5,117.5C 214.177,117.801 215.843,116.134 215.5,112.5C 217.103,112.312 218.437,112.812 219.5,114C 217.158,115.392 217.158,116.225 219.5,116.5C 206.729,120.886 194.729,126.886 183.5,134.5C 184.632,130.667 186.298,127 188.5,123.5C 187.167,122.833 185.833,122.167 184.5,121.5C 185.025,120.808 185.692,120.308 186.5,120C 185.207,119.51 183.873,119.343 182.5,119.5C 193.992,111.661 206.659,106.327 220.5,103.5 Z"/></g>
<g><path style="opacity:1" fill="#6ea3ac" d="M 255.5,125.5 C 261.364,123.955 264.698,126.121 265.5,132C 263.435,138.118 259.601,139.618 254,136.5C 251.842,132.461 252.342,128.794 255.5,125.5 Z"/></g>
<g><path style="opacity:1" fill="#4e93a7" d="M 257.5,127.5 C 258.5,127.5 259.5,127.5 260.5,127.5C 260.5,128.833 260.5,130.167 260.5,131.5C 264.584,130.945 265.251,131.945 262.5,134.5C 256.55,137.943 254.05,136.276 255,129.5C 255.995,128.934 256.828,128.267 257.5,127.5 Z"/></g>
<g><path style="opacity:1" fill="#5491a3" d="M 182.5,119.5 C 183.873,119.343 185.207,119.51 186.5,120C 185.692,120.308 185.025,120.808 184.5,121.5C 185.833,122.167 187.167,122.833 188.5,123.5C 186.298,127 184.632,130.667 183.5,134.5C 172.794,142.872 163.461,152.539 155.5,163.5C 155.489,161.983 154.823,160.816 153.5,160C 155.891,159.309 155.891,158.309 153.5,157C 153.833,156.667 154.167,156.333 154.5,156C 153.809,154.933 153.309,153.766 153,152.5C 151.354,154.569 149.187,155.902 146.5,156.5C 145.634,159.531 144.134,162.197 142,164.5C 141.617,163.944 141.117,163.611 140.5,163.5C 150.736,145.263 164.736,130.597 182.5,119.5 Z"/></g>
<g><path style="opacity:0.999" fill="#5591a2" d="M 317.5,119.5 C 332.1,128.432 344.1,140.099 353.5,154.5C 352.596,155.209 352.263,156.209 352.5,157.5C 349.795,157.62 349.128,156.62 350.5,154.5C 350,154.167 349.5,153.833 349,153.5C 347.806,155.024 346.306,156.19 344.5,157C 345.255,159.175 346.088,161.341 347,163.5C 348.342,162.098 349.176,162.431 349.5,164.5C 350.615,166.733 350.615,168.899 349.5,171C 351.018,172.848 352.851,174.348 355,175.5C 355.333,174.833 355.667,174.167 356,173.5C 356.586,176.729 356.086,179.729 354.5,182.5C 344.535,161.2 329.868,143.867 310.5,130.5C 310.611,129.883 310.944,129.383 311.5,129C 309.998,128.417 308.665,127.584 307.5,126.5C 307.386,124.581 306.72,122.581 305.5,120.5C 307.787,120.276 309.953,119.609 312,118.5C 313.766,119.233 315.599,119.567 317.5,119.5 Z"/></g>
<g><path style="opacity:1" fill="#5892a2" d="M 292.5,174.5 C 294.877,173.113 297.543,172.279 300.5,172C 300.167,171.667 299.833,171.333 299.5,171C 301.167,170.167 302.833,169.333 304.5,168.5C 305.435,165.898 307.102,163.898 309.5,162.5C 309,161.5 308.5,160.5 308,159.5C 307.1,161.398 305.934,163.064 304.5,164.5C 303.305,162.703 301.638,161.703 299.5,161.5C 298.796,163.344 297.463,163.844 295.5,163C 293.893,161.951 293.227,160.451 293.5,158.5C 292.022,158.762 290.689,158.429 289.5,157.5C 288.359,156.575 288.359,155.741 289.5,155C 288.365,154.251 287.365,154.417 286.5,155.5C 284.87,158.578 284.037,161.911 284,165.5C 282.887,166.305 281.721,166.972 280.5,167.5C 282.092,163.752 282.925,159.752 283,155.5C 288.819,144.707 296.819,142.707 307,149.5C 313.869,159.57 312.036,167.737 301.5,174C 298.518,174.498 295.518,174.665 292.5,174.5 Z M 299.5,161.5 C 296.42,162.877 294.92,161.877 295,158.5C 297.778,157.315 299.278,158.315 299.5,161.5 Z"/></g>
<g><path style="opacity:1" fill="#508b9d" d="M 279.5,167.5 C 277.409,167.682 275.409,167.348 273.5,166.5C 271.556,167.189 269.556,167.689 267.5,168C 269.271,168.535 269.604,169.369 268.5,170.5C 267.152,168.539 265.819,168.372 264.5,170C 264.833,170.333 265.167,170.667 265.5,171C 260.699,171.926 256.532,170.759 253,167.5C 252,171.5 251,171.5 250,167.5C 248.417,169.055 246.584,170.222 244.5,171C 246.167,171.333 247.833,171.667 249.5,172C 246.774,172.182 244.107,172.682 241.5,173.5C 242.381,174.971 243.714,175.804 245.5,176C 251.167,176.333 256.833,176.667 262.5,177C 261.584,177.278 260.918,177.778 260.5,178.5C 241.285,174.27 228.285,181.27 221.5,199.5C 219.828,195.985 219.161,192.485 219.5,189C 221.488,188.82 223.488,188.986 225.5,189.5C 225.481,187.94 225.148,186.44 224.5,185C 226.996,182.954 228.33,180.62 228.5,178C 226.116,176.599 223.783,176.099 221.5,176.5C 222.729,175.719 224.062,175.219 225.5,175C 223.005,174.843 220.672,174.676 218.5,174.5C 216.511,176.531 214.344,177.197 212,176.5C 211.722,177.416 211.222,178.082 210.5,178.5C 209.71,177.206 208.71,176.039 207.5,175C 194.08,174.583 188.247,167.75 190,154.5C 195.399,145.297 202.899,143.13 212.5,148C 216.88,152.396 218.713,157.563 218,163.5C 218.347,165.18 219.347,166.18 221,166.5C 240.728,153.394 260.228,153.727 279.5,167.5 Z M 201.5,157.5 C 205.161,157.35 206.161,158.85 204.5,162C 203.551,162.617 202.718,162.451 202,161.5C 201.51,160.207 201.343,158.873 201.5,157.5 Z"/></g>
<g><path style="opacity:1" fill="#4a879a" d="M 299.5,161.5 C 301.638,161.703 303.305,162.703 304.5,164.5C 305.934,163.064 307.1,161.398 308,159.5C 308.5,160.5 309,161.5 309.5,162.5C 307.102,163.898 305.435,165.898 304.5,168.5C 302.833,169.333 301.167,170.167 299.5,171C 299.833,171.333 300.167,171.667 300.5,172C 297.543,172.279 294.877,173.113 292.5,174.5C 291.645,175.531 290.978,176.697 290.5,178C 292.079,180.737 293.412,183.571 294.5,186.5C 293.069,186.881 292.236,187.881 292,189.5C 291.022,186.949 290.522,184.282 290.5,181.5C 287.591,180.823 284.758,180.489 282,180.5C 281.221,181.728 280.221,182.728 279,183.5C 277.765,182.385 276.598,182.385 275.5,183.5C 274.678,185.139 274.011,186.805 273.5,188.5C 269.713,184.37 265.379,181.036 260.5,178.5C 260.918,177.778 261.584,177.278 262.5,177C 256.833,176.667 251.167,176.333 245.5,176C 243.714,175.804 242.381,174.971 241.5,173.5C 244.107,172.682 246.774,172.182 249.5,172C 247.833,171.667 246.167,171.333 244.5,171C 246.584,170.222 248.417,169.055 250,167.5C 251,171.5 252,171.5 253,167.5C 256.532,170.759 260.699,171.926 265.5,171C 265.167,170.667 264.833,170.333 264.5,170C 265.819,168.372 267.152,168.539 268.5,170.5C 269.604,169.369 269.271,168.535 267.5,168C 269.556,167.689 271.556,167.189 273.5,166.5C 275.409,167.348 277.409,167.682 279.5,167.5C 279.833,167.5 280.167,167.5 280.5,167.5C 281.721,166.972 282.887,166.305 284,165.5C 284.037,161.911 284.87,158.578 286.5,155.5C 287.365,154.417 288.365,154.251 289.5,155C 288.359,155.741 288.359,156.575 289.5,157.5C 290.689,158.429 292.022,158.762 293.5,158.5C 293.227,160.451 293.893,161.951 295.5,163C 297.463,163.844 298.796,163.344 299.5,161.5 Z"/></g>
<g><path style="opacity:1" fill="#4a8d9d" d="M 181.5,166.5 C 180.941,169.516 180.275,172.516 179.5,175.5C 177.604,176.466 175.604,176.799 173.5,176.5C 172.25,176.423 171.417,175.756 171,174.5C 168.957,168.571 170.957,165.237 177,164.5C 179.008,164.307 180.508,164.974 181.5,166.5 Z"/></g>
<g><path style="opacity:1" fill="#74a8ae" d="M 181.5,166.5 C 183.94,169.261 184.107,172.261 182,175.5C 179.302,177.673 176.469,178.006 173.5,176.5C 175.604,176.799 177.604,176.466 179.5,175.5C 180.275,172.516 180.941,169.516 181.5,166.5 Z"/></g>
<g><path style="opacity:1" fill="#6295a1" d="M 155.5,163.5 C 149.319,174.202 144.486,185.536 141,197.5C 139.67,198.582 138.17,199.249 136.5,199.5C 136.881,198.069 137.881,197.236 139.5,197C 139.167,196.667 138.833,196.333 138.5,196C 140.196,191.09 142.196,186.256 144.5,181.5C 145.48,178.914 145.813,176.247 145.5,173.5C 146.833,173.5 148.167,173.5 149.5,173.5C 149.126,168.511 151.126,165.178 155.5,163.5 Z"/></g>
<g><path style="opacity:1" fill="#478597" d="M 353.5,154.5 C 362.375,166.425 368.375,179.758 371.5,194.5C 370.244,194.096 369.077,193.429 368,192.5C 366.779,193.272 365.779,194.272 365,195.5C 364,195.167 363,194.833 362,194.5C 361.308,195.025 360.808,195.692 360.5,196.5C 361.535,198.128 361.535,199.795 360.5,201.5C 358.362,195.302 356.362,188.968 354.5,182.5C 356.086,179.729 356.586,176.729 356,173.5C 355.667,174.167 355.333,174.833 355,175.5C 352.851,174.348 351.018,172.848 349.5,171C 350.615,168.899 350.615,166.733 349.5,164.5C 349.176,162.431 348.342,162.098 347,163.5C 346.088,161.341 345.255,159.175 344.5,157C 346.306,156.19 347.806,155.024 349,153.5C 349.5,153.833 350,154.167 350.5,154.5C 349.128,156.62 349.795,157.62 352.5,157.5C 352.263,156.209 352.596,155.209 353.5,154.5 Z"/></g>
<g><path style="opacity:1" fill="#448296" d="M 221.5,199.5 C 221.5,203.5 221.5,207.5 221.5,211.5C 220.681,208.695 220.181,205.695 220,202.5C 219.667,203.167 219.333,203.833 219,204.5C 217.951,199.949 215.118,197.949 210.5,198.5C 210.477,204.858 209.477,204.858 207.5,198.5C 207.767,190.836 206.101,190.503 202.5,197.5C 203.279,190.287 205.945,183.954 210.5,178.5C 211.222,178.082 211.722,177.416 212,176.5C 214.344,177.197 216.511,176.531 218.5,174.5C 220.672,174.676 223.005,174.843 225.5,175C 224.062,175.219 222.729,175.719 221.5,176.5C 223.783,176.099 226.116,176.599 228.5,178C 228.33,180.62 226.996,182.954 224.5,185C 225.148,186.44 225.481,187.94 225.5,189.5C 223.488,188.986 221.488,188.82 219.5,189C 219.161,192.485 219.828,195.985 221.5,199.5 Z"/></g>
<g><path style="opacity:1" fill="#428498" d="M 155.5,163.5 C 151.126,165.178 149.126,168.511 149.5,173.5C 148.167,173.5 146.833,173.5 145.5,173.5C 145.813,176.247 145.48,178.914 144.5,181.5C 142.196,186.256 140.196,191.09 138.5,196C 138.833,196.333 139.167,196.667 139.5,197C 137.881,197.236 136.881,198.069 136.5,199.5C 131.866,200.359 129.199,198.526 128.5,194C 131.051,183.165 135.051,172.998 140.5,163.5C 141.117,163.611 141.617,163.944 142,164.5C 144.134,162.197 145.634,159.531 146.5,156.5C 149.187,155.902 151.354,154.569 153,152.5C 153.309,153.766 153.809,154.933 154.5,156C 154.167,156.333 153.833,156.667 153.5,157C 155.891,158.309 155.891,159.309 153.5,160C 154.823,160.816 155.489,161.983 155.5,163.5 Z"/></g>
<g><path style="opacity:1" fill="#458194" d="M 294.5,186.5 C 297.624,192.515 298.957,199.015 298.5,206C 298.903,214.556 296.903,222.389 292.5,229.5C 292.118,226.646 292.118,223.646 292.5,220.5C 294.124,220.64 295.29,219.973 296,218.5C 296.947,213.44 297.447,208.107 297.5,202.5C 294.972,201.977 292.639,200.977 290.5,199.5C 288.575,201.973 286.742,201.973 285,199.5C 282.978,200.991 281.312,200.658 280,198.5C 279.506,200.134 279.34,201.801 279.5,203.5C 278.394,198.267 276.394,193.267 273.5,188.5C 274.011,186.805 274.678,185.139 275.5,183.5C 276.598,182.385 277.765,182.385 279,183.5C 280.221,182.728 281.221,181.728 282,180.5C 284.758,180.489 287.591,180.823 290.5,181.5C 290.522,184.282 291.022,186.949 292,189.5C 292.236,187.881 293.069,186.881 294.5,186.5 Z"/></g>
<g><path style="opacity:1" fill="#4d889a" d="M 165.5,195.5 C 165.307,198.308 164.64,200.975 163.5,203.5C 155.432,206.617 152.265,203.617 154,194.5C 157.026,191.136 160.526,190.636 164.5,193C 165.252,193.671 165.586,194.504 165.5,195.5 Z"/></g>
<g><path style="opacity:1" fill="#508f9d" d="M 320.5,191.5 C 325.256,191.755 327.922,194.255 328.5,199C 326.435,205.118 322.601,206.618 317,203.5C 314.259,198.202 315.426,194.202 320.5,191.5 Z"/></g>
<g><path style="opacity:0.808" fill="#90b7bb" d="M 165.5,195.5 C 167.184,198.718 166.517,201.385 163.5,203.5C 164.64,200.975 165.307,198.308 165.5,195.5 Z"/></g>
<g><path style="opacity:1" fill="#3f7c90" d="M 221.5,211.5 C 224.386,223.715 231.72,231.715 243.5,235.5C 242.417,235.539 241.417,235.873 240.5,236.5C 239.15,235.05 237.484,234.383 235.5,234.5C 232.875,231.936 229.709,230.27 226,229.5C 225.505,227.527 225.338,225.527 225.5,223.5C 221.889,225.528 219.555,224.528 218.5,220.5C 216.86,222.43 214.86,223.263 212.5,223C 215.433,220.649 215.099,219.649 211.5,220C 210.483,222.637 209.15,224.303 207.5,225C 208.742,226.651 209.576,228.485 210,230.5C 210.667,229.167 211.333,229.167 212,230.5C 212.579,231.928 212.412,233.262 211.5,234.5C 202.791,223.637 199.791,211.304 202.5,197.5C 206.101,190.503 207.767,190.836 207.5,198.5C 209.477,204.858 210.477,204.858 210.5,198.5C 215.118,197.949 217.951,199.949 219,204.5C 219.333,203.833 219.667,203.167 220,202.5C 220.181,205.695 220.681,208.695 221.5,211.5 Z"/></g>
<g><path style="opacity:0.999" fill="#3b798d" d="M 292.5,229.5 C 287.116,238.55 279.783,245.55 270.5,250.5C 270.343,249.127 270.51,247.793 271,246.5C 272.113,247.711 273.28,247.711 274.5,246.5C 275.48,245.019 276.647,243.685 278,242.5C 278.72,240.888 278.554,239.388 277.5,238C 280.553,236.419 281.22,234.086 279.5,231C 280.679,227.752 281.679,227.918 282.5,231.5C 282.291,232.086 281.957,232.586 281.5,233C 283.81,233.497 286.143,233.663 288.5,233.5C 289.957,230.178 290.957,226.678 291.5,223C 291.561,221.289 290.894,219.956 289.5,219C 290.328,218.085 291.328,217.419 292.5,217C 289.57,216.394 286.737,215.56 284,214.5C 283.51,215.793 283.343,217.127 283.5,218.5C 281.089,218.863 279.589,217.863 279,215.5C 280.313,218.728 279.147,220.728 275.5,221.5C 277.978,215.777 279.312,209.777 279.5,203.5C 279.34,201.801 279.506,200.134 280,198.5C 281.312,200.658 282.978,200.991 285,199.5C 286.742,201.973 288.575,201.973 290.5,199.5C 292.639,200.977 294.972,201.977 297.5,202.5C 297.447,208.107 296.947,213.44 296,218.5C 295.29,219.973 294.124,220.64 292.5,220.5C 292.118,223.646 292.118,226.646 292.5,229.5 Z"/></g>
<g><path style="opacity:1" fill="#39788c" d="M 371.5,194.5 C 374.636,204.292 375.969,214.459 375.5,225C 375.698,234.262 374.865,243.429 373,252.5C 370.532,256.878 367.032,258.045 362.5,256C 360.955,254.178 360.288,252.011 360.5,249.5C 360.796,245.094 361.463,240.76 362.5,236.5C 362.291,235.914 361.957,235.414 361.5,235C 358.854,234.503 356.187,234.336 353.5,234.5C 349.434,234.693 345.434,234.36 341.5,233.5C 337.256,227.847 337.923,222.681 343.5,218C 346.167,217.333 348.833,217.333 351.5,218C 352.942,218.377 353.942,219.21 354.5,220.5C 356.988,222.388 359.988,223.055 363.5,222.5C 363.795,220.265 363.461,218.265 362.5,216.5C 361.647,211.53 360.98,206.53 360.5,201.5C 361.535,199.795 361.535,198.128 360.5,196.5C 360.808,195.692 361.308,195.025 362,194.5C 363,194.833 364,195.167 365,195.5C 365.779,194.272 366.779,193.272 368,192.5C 369.077,193.429 370.244,194.096 371.5,194.5 Z"/></g>
<g><path style="opacity:0.184" fill="#9ec2c9" d="M 362.5,216.5 C 363.461,218.265 363.795,220.265 363.5,222.5C 359.988,223.055 356.988,222.388 354.5,220.5C 357.054,221.388 359.721,221.721 362.5,221.5C 362.5,219.833 362.5,218.167 362.5,216.5 Z"/></g>
<g><path style="opacity:1" fill="#3a788c" d="M 138.5,221.5 C 139.793,222.158 141.293,222.492 143,222.5C 144.986,222.431 146.486,221.765 147.5,220.5C 152.535,216.248 157.369,216.581 162,221.5C 164.825,228.163 162.992,232.83 156.5,235.5C 150.72,233.77 144.72,233.103 138.5,233.5C 137.883,233.611 137.383,233.944 137,234.5C 136.667,236.833 136.333,239.167 136,241.5C 134.272,236.418 132.439,231.418 130.5,226.5C 128.573,232.687 127.573,239.021 127.5,245.5C 126.691,243.708 126.191,241.708 126,239.5C 125.333,231.833 125.333,224.167 126,216.5C 129.397,213.019 133.064,212.686 137,215.5C 138.128,217.345 138.628,219.345 138.5,221.5 Z"/></g>
<g><path style="opacity:0.173" fill="#b0d0d6" d="M 147.5,220.5 C 146.486,221.765 144.986,222.431 143,222.5C 141.293,222.492 139.793,222.158 138.5,221.5C 141.609,221.736 144.609,221.403 147.5,220.5 Z"/></g>
<g><path style="opacity:1" fill="#347387" d="M 235.5,234.5 C 234.916,236.257 233.749,237.59 232,238.5C 229.645,238.959 227.479,239.792 225.5,241C 226.854,242.294 228.188,242.46 229.5,241.5C 230.696,241.846 230.696,242.346 229.5,243C 228.101,243.595 226.768,243.428 225.5,242.5C 224.5,242.833 223.833,243.5 223.5,244.5C 226.215,246.264 229.215,247.264 232.5,247.5C 232.5,248.5 232.5,249.5 232.5,250.5C 231.883,255.269 231.216,259.936 230.5,264.5C 230.5,263.167 230.5,261.833 230.5,260.5C 230.665,257.15 230.498,253.817 230,250.5C 222.114,247.111 215.947,241.778 211.5,234.5C 212.412,233.262 212.579,231.928 212,230.5C 211.333,229.167 210.667,229.167 210,230.5C 209.576,228.485 208.742,226.651 207.5,225C 209.15,224.303 210.483,222.637 211.5,220C 215.099,219.649 215.433,220.649 212.5,223C 214.86,223.263 216.86,222.43 218.5,220.5C 219.555,224.528 221.889,225.528 225.5,223.5C 225.338,225.527 225.505,227.527 226,229.5C 229.709,230.27 232.875,231.936 235.5,234.5 Z"/></g>
<g><path style="opacity:0.74" fill="#719aa5" d="M 138.5,233.5 C 144.72,233.103 150.72,233.77 156.5,235.5C 155.726,236.147 154.726,236.48 153.5,236.5C 148.992,234.887 144.326,234.221 139.5,234.5C 139.646,238.519 139.979,242.519 140.5,246.5C 138.823,242.455 138.156,238.122 138.5,233.5 Z"/></g>
<g><path style="opacity:1" fill="#2f7086" d="M 270.5,250.5 C 269.507,258.65 269.174,266.983 269.5,275.5C 267.887,275.056 266.72,274.056 266,272.5C 265.333,263.167 264.667,263.167 264,272.5C 263.333,273.167 262.667,273.833 262,274.5C 261.667,268.833 261.333,263.167 261,257.5C 260.827,263.016 260.327,268.349 259.5,273.5C 259.821,267.974 259.488,262.64 258.5,257.5C 258.586,256.504 258.252,255.671 257.5,255C 252.511,254.501 247.511,254.334 242.5,254.5C 241.507,262.984 241.174,271.651 241.5,280.5C 240.27,275.706 239.437,270.706 239,265.5C 237.982,266.706 237.482,266.373 237.5,264.5C 238.894,262.354 239.56,260.021 239.5,257.5C 237.833,257.5 236.167,257.5 234.5,257.5C 234.216,255.123 234.216,252.956 234.5,251C 233.906,250.536 233.239,250.369 232.5,250.5C 232.5,249.5 232.5,248.5 232.5,247.5C 229.215,247.264 226.215,246.264 223.5,244.5C 223.833,243.5 224.5,242.833 225.5,242.5C 226.768,243.428 228.101,243.595 229.5,243C 230.696,242.346 230.696,241.846 229.5,241.5C 228.188,242.46 226.854,242.294 225.5,241C 227.479,239.792 229.645,238.959 232,238.5C 233.749,237.59 234.916,236.257 235.5,234.5C 237.484,234.383 239.15,235.05 240.5,236.5C 241.417,235.873 242.417,235.539 243.5,235.5C 257.131,237.346 267.797,232.68 275.5,221.5C 279.147,220.728 280.313,218.728 279,215.5C 279.589,217.863 281.089,218.863 283.5,218.5C 283.343,217.127 283.51,215.793 284,214.5C 286.737,215.56 289.57,216.394 292.5,217C 291.328,217.419 290.328,218.085 289.5,219C 290.894,219.956 291.561,221.289 291.5,223C 290.957,226.678 289.957,230.178 288.5,233.5C 286.143,233.663 283.81,233.497 281.5,233C 281.957,232.586 282.291,232.086 282.5,231.5C 281.679,227.918 280.679,227.752 279.5,231C 281.22,234.086 280.553,236.419 277.5,238C 278.554,239.388 278.72,240.888 278,242.5C 276.647,243.685 275.48,245.019 274.5,246.5C 273.28,247.711 272.113,247.711 271,246.5C 270.51,247.793 270.343,249.127 270.5,250.5 Z"/></g>
<g><path style="opacity:0.945" fill="#729da9" d="M 341.5,233.5 C 345.434,234.36 349.434,234.693 353.5,234.5C 349.199,237.448 345.199,237.115 341.5,233.5 Z"/></g>
<g><path style="opacity:1" fill="#307084" d="M 138.5,233.5 C 138.156,238.122 138.823,242.455 140.5,246.5C 143.881,260.314 149.215,273.314 156.5,285.5C 153.742,287.048 151.242,286.715 149,284.5C 146.771,289.128 148.271,291.794 153.5,292.5C 154.207,295.786 154.54,299.119 154.5,302.5C 139.393,286.611 130.393,267.611 127.5,245.5C 127.573,239.021 128.573,232.687 130.5,226.5C 132.439,231.418 134.272,236.418 136,241.5C 136.333,239.167 136.667,236.833 137,234.5C 137.383,233.944 137.883,233.611 138.5,233.5 Z"/></g>
<g><path style="opacity:1" fill="#487d89" d="M 301.5,247.5 C 299.906,247.92 298.406,248.586 297,249.5C 293.544,248.361 290.21,248.694 287,250.5C 284.518,256.795 282.351,263.128 280.5,269.5C 278.137,272.854 275.137,275.52 271.5,277.5C 270.287,277.253 269.62,276.586 269.5,275.5C 269.174,266.983 269.507,258.65 270.5,250.5C 270.334,258.84 270.5,267.173 271,275.5C 274.026,272.805 277.026,270.138 280,267.5C 281.19,263.619 281.857,259.619 282,255.5C 286.232,247.13 292.732,244.463 301.5,247.5 Z"/></g>
<g><path style="opacity:1" fill="#60919c" d="M 349.5,259.5 C 346.946,260.388 344.279,260.721 341.5,260.5C 341.5,263.167 341.5,265.833 341.5,268.5C 337.988,262.983 339.488,259.317 346,257.5C 347.459,257.808 348.626,258.475 349.5,259.5 Z"/></g>
<g><path style="opacity:1" fill="#377789" d="M 349.5,259.5 C 350.75,259.577 351.583,260.244 352,261.5C 353.32,267.026 351.153,270.359 345.5,271.5C 343.347,271.439 342.014,270.439 341.5,268.5C 341.5,265.833 341.5,263.167 341.5,260.5C 344.279,260.721 346.946,260.388 349.5,259.5 Z"/></g>
<g><path style="opacity:1" fill="#306f84" d="M 301.5,247.5 C 311.737,254.089 313.07,262.255 305.5,272C 300.6,275.395 295.266,276.395 289.5,275C 284.965,279.703 280.298,284.203 275.5,288.5C 275.626,286.8 276.293,285.3 277.5,284C 277.095,283.055 276.428,282.388 275.5,282C 276.931,281.535 278.097,280.701 279,279.5C 279.333,277.167 279.667,274.833 280,272.5C 280.889,273.888 281.389,273.722 281.5,272C 281.257,271.098 280.923,270.265 280.5,269.5C 282.351,263.128 284.518,256.795 287,250.5C 290.21,248.694 293.544,248.361 297,249.5C 298.406,248.586 299.906,247.92 301.5,247.5 Z M 295.5,258.5 C 299.147,259.873 299.314,261.539 296,263.5C 295.167,262.667 294.333,261.833 293.5,261C 294.381,260.292 295.047,259.458 295.5,258.5 Z"/></g>
<g><path style="opacity:1" fill="#317084" d="M 196.5,282.5 C 195.25,282.577 194.417,283.244 194,284.5C 193.07,281.638 191.403,279.305 189,277.5C 188.027,275.608 187.36,273.608 187,271.5C 186.326,272.578 185.326,273.245 184,273.5C 181.908,273.121 179.908,272.454 178,271.5C 177.05,272.022 176.216,272.689 175.5,273.5C 172.54,270.014 170.54,270.181 169.5,274C 171.481,274.605 171.815,275.605 170.5,277C 171.833,277.333 173.167,277.667 174.5,278C 173.263,278.232 172.263,278.732 171.5,279.5C 162.157,275.813 158.991,269.147 162,259.5C 169.584,249.849 177.917,249.182 187,257.5C 187.667,258.833 188.333,260.167 189,261.5C 189.363,265.866 189.363,270.199 189,274.5C 191.705,277.036 194.205,279.703 196.5,282.5 Z M 177.5,266.5 C 176.292,267.234 174.959,267.567 173.5,267.5C 173.5,266.5 173.5,265.5 173.5,264.5C 175.709,263.024 177.042,263.691 177.5,266.5 Z"/></g>
<g><path style="opacity:0.749" fill="#79a4b1" d="M 173.5,264.5 C 173.5,265.5 173.5,266.5 173.5,267.5C 174.959,267.567 176.292,267.234 177.5,266.5C 176.448,268.256 174.781,268.923 172.5,268.5C 172.232,266.901 172.566,265.568 173.5,264.5 Z"/></g>
<g><path style="opacity:1" fill="#316e82" d="M 232.5,250.5 C 233.239,250.369 233.906,250.536 234.5,251C 234.216,252.956 234.216,255.123 234.5,257.5C 236.167,257.5 237.833,257.5 239.5,257.5C 239.56,260.021 238.894,262.354 237.5,264.5C 237.482,266.373 237.982,266.706 239,265.5C 239.437,270.706 240.27,275.706 241.5,280.5C 241.5,288.5 241.5,296.5 241.5,304.5C 240.527,302.052 240.194,299.385 240.5,296.5C 238.833,296.5 237.167,296.5 235.5,296.5C 235.561,291.678 236.727,291.345 239,295.5C 239.197,290.914 239.697,286.414 240.5,282C 240,281.5 239.5,281 239,280.5C 238.209,282.604 236.709,283.937 234.5,284.5C 233.605,287.808 232.771,291.141 232,294.5C 231.333,304.167 231.333,313.833 232,323.5C 234.391,323.73 236.891,323.73 239.5,323.5C 239.5,324.5 239.5,325.5 239.5,326.5C 237.602,328.368 235.269,328.535 232.5,327C 231.299,326.097 230.465,324.931 230,323.5C 229.667,312.833 229.333,302.167 229,291.5C 226.984,289.316 224.817,287.316 222.5,285.5C 215.028,287.015 209.528,284.348 206,277.5C 204.499,262.523 210.999,256.69 225.5,260C 226.942,260.377 227.942,261.21 228.5,262.5C 228.833,263.5 229.5,264.167 230.5,264.5C 231.216,259.936 231.883,255.269 232.5,250.5 Z M 217.5,270.5 C 221.643,271.408 222.143,273.074 219,275.5C 217.731,274.095 217.231,272.429 217.5,270.5 Z"/></g>
<g><path style="opacity:0.078" fill="#b0dde6" d="M 230.5,260.5 C 230.5,261.833 230.5,263.167 230.5,264.5C 229.5,264.167 228.833,263.5 228.5,262.5C 229.167,261.833 229.833,261.167 230.5,260.5 Z"/></g>
<g><path style="opacity:1" fill="#2f6c7f" d="M 321.5,290.5 C 318.633,288.879 316.3,289.546 314.5,292.5C 313.914,292.291 313.414,291.957 313,291.5C 312.505,293.473 312.338,295.473 312.5,297.5C 306.437,302.561 301.103,308.227 296.5,314.5C 296.141,312.234 296.808,310.401 298.5,309C 297.903,307.111 297.569,305.278 297.5,303.5C 301.29,300.995 301.29,298.662 297.5,296.5C 296.06,297.952 294.394,298.952 292.5,299.5C 300.302,290.866 308.635,282.699 317.5,275C 327.289,270.644 332.456,273.811 333,284.5C 335.333,286.833 337.667,289.167 340,291.5C 342.868,288.264 345.368,284.764 347.5,281C 351.65,278.856 355.65,279.023 359.5,281.5C 360.818,283.912 360.651,286.246 359,288.5C 354.21,294.959 349.043,301.126 343.5,307C 341.5,307.667 339.5,307.667 337.5,307C 332.032,302.533 326.865,297.7 322,292.5C 321.536,291.906 321.369,291.239 321.5,290.5 Z"/></g>
<g><path style="opacity:0.649" fill="#62949a" d="M 242.5,254.5 C 242.667,277.836 242.5,301.169 242,324.5C 241.583,325.756 240.75,326.423 239.5,326.5C 239.5,325.5 239.5,324.5 239.5,323.5C 241.456,317.588 242.123,311.255 241.5,304.5C 241.5,296.5 241.5,288.5 241.5,280.5C 241.174,271.651 241.507,262.984 242.5,254.5 Z"/></g>
<g><path style="opacity:1" fill="#538590" d="M 321.5,290.5 C 318.233,292.427 315.233,294.761 312.5,297.5C 312.338,295.473 312.505,293.473 313,291.5C 313.414,291.957 313.914,292.291 314.5,292.5C 316.3,289.546 318.633,288.879 321.5,290.5 Z"/></g>
<g><path style="opacity:1" fill="#206179" d="M 269.5,275.5 C 269.62,276.586 270.287,277.253 271.5,277.5C 275.137,275.52 278.137,272.854 280.5,269.5C 280.923,270.265 281.257,271.098 281.5,272C 281.389,273.722 280.889,273.888 280,272.5C 279.667,274.833 279.333,277.167 279,279.5C 278.097,280.701 276.931,281.535 275.5,282C 276.428,282.388 277.095,283.055 277.5,284C 276.293,285.3 275.626,286.8 275.5,288.5C 274.5,288.5 273.5,288.5 272.5,288.5C 274.56,293.118 275.894,298.118 276.5,303.5C 277.833,303.833 279.167,304.167 280.5,304.5C 280.331,306.117 279.997,307.784 279.5,309.5C 277.925,308.544 276.258,307.877 274.5,307.5C 273.047,303.808 270.88,303.141 268,305.5C 268.15,313.684 268.983,321.684 270.5,329.5C 274.646,330.647 278.98,330.814 283.5,330C 284.252,329.329 284.586,328.496 284.5,327.5C 285.311,323.582 286.311,319.582 287.5,315.5C 287.692,319.411 287.859,323.411 288,327.5C 288.511,325.122 289.178,322.788 290,320.5C 291.325,325.401 291.825,330.401 291.5,335.5C 290.448,335.351 289.448,335.517 288.5,336C 289.938,336.219 291.271,336.719 292.5,337.5C 289.559,338.522 286.559,339.355 283.5,340C 277.116,340.206 270.783,340.706 264.5,341.5C 263.614,340.675 263.281,339.675 263.5,338.5C 268.248,338.725 272.915,338.225 277.5,337C 273.564,335.913 269.564,335.08 265.5,334.5C 264.914,334.709 264.414,335.043 264,335.5C 262.992,330.459 262.492,330.792 262.5,336.5C 261.5,336.5 260.5,336.5 259.5,336.5C 259.5,315.5 259.5,294.5 259.5,273.5C 260.327,268.349 260.827,263.016 261,257.5C 261.333,263.167 261.667,268.833 262,274.5C 262.667,273.833 263.333,273.167 264,272.5C 264.667,263.167 265.333,263.167 266,272.5C 266.72,274.056 267.887,275.056 269.5,275.5 Z"/></g>
<g><path style="opacity:1" fill="#397283" d="M 196.5,282.5 C 203.496,289.328 210.663,295.995 218,302.5C 218.333,319.5 218.667,336.5 219,353.5C 219.717,354.044 220.217,354.711 220.5,355.5C 219.504,355.586 218.671,355.252 218,354.5C 217.667,345.5 217.333,336.5 217,327.5C 216.064,323.253 214.897,319.086 213.5,315C 214.024,310.931 214.69,306.931 215.5,303C 213.112,302.135 211.612,302.968 211,305.5C 210.667,304.833 210.333,304.167 210,303.5C 208.542,304.747 207.042,304.747 205.5,303.5C 205.167,304 204.833,304.5 204.5,305C 206.457,323.036 207.124,341.203 206.5,359.5C 205.668,342.672 205.168,325.672 205,308.5C 195.833,299.333 186.667,290.167 177.5,281C 175.482,280.495 173.482,279.995 171.5,279.5C 172.263,278.732 173.263,278.232 174.5,278C 173.167,277.667 171.833,277.333 170.5,277C 171.815,275.605 171.481,274.605 169.5,274C 170.54,270.181 172.54,270.014 175.5,273.5C 176.216,272.689 177.05,272.022 178,271.5C 179.908,272.454 181.908,273.121 184,273.5C 185.326,273.245 186.326,272.578 187,271.5C 187.36,273.608 188.027,275.608 189,277.5C 191.403,279.305 193.07,281.638 194,284.5C 194.417,283.244 195.25,282.577 196.5,282.5 Z"/></g>
<g><path style="opacity:1" fill="#1e6279" d="M 241.5,304.5 C 242.123,311.255 241.456,317.588 239.5,323.5C 236.891,323.73 234.391,323.73 232,323.5C 231.333,313.833 231.333,304.167 232,294.5C 232.771,291.141 233.605,287.808 234.5,284.5C 236.709,283.937 238.209,282.604 239,280.5C 239.5,281 240,281.5 240.5,282C 239.697,286.414 239.197,290.914 239,295.5C 236.727,291.345 235.561,291.678 235.5,296.5C 237.167,296.5 238.833,296.5 240.5,296.5C 240.194,299.385 240.527,302.052 241.5,304.5 Z"/></g>
<g><path style="opacity:1" fill="#2b677a" d="M 156.5,285.5 C 160.565,291.066 165.231,296.232 170.5,301C 176.655,306.901 183.321,312.068 190.5,316.5C 191.751,321.631 191.751,326.631 190.5,331.5C 176.132,324.801 164.132,315.135 154.5,302.5C 154.54,299.119 154.207,295.786 153.5,292.5C 148.271,291.794 146.771,289.128 149,284.5C 151.242,286.715 153.742,287.048 156.5,285.5 Z"/></g>
<g><path style="opacity:0.447" fill="#98b7b7" d="M 314.5,311.5 C 314.573,313.027 313.906,314.027 312.5,314.5C 312.427,312.973 313.094,311.973 314.5,311.5 Z"/></g>
<g><path style="opacity:1" fill="#346d7f" d="M 312.5,314.5 C 313.906,314.027 314.573,313.027 314.5,311.5C 319.95,307.359 324.45,308.359 328,314.5C 328.548,321.953 325.048,325.453 317.5,325C 312.674,322.853 311.007,319.353 312.5,314.5 Z"/></g>
<g><path style="opacity:1" fill="#2e687a" d="M 258.5,257.5 C 259.488,262.64 259.821,267.974 259.5,273.5C 259.5,294.5 259.5,315.5 259.5,336.5C 260.5,336.5 261.5,336.5 262.5,336.5C 262.492,330.792 262.992,330.459 264,335.5C 264.414,335.043 264.914,334.709 265.5,334.5C 269.564,335.08 273.564,335.913 277.5,337C 272.915,338.225 268.248,338.725 263.5,338.5C 263.281,339.675 263.614,340.675 264.5,341.5C 270.783,340.706 277.116,340.206 283.5,340C 286.559,339.355 289.559,338.522 292.5,337.5C 291.271,336.719 289.938,336.219 288.5,336C 289.448,335.517 290.448,335.351 291.5,335.5C 291.825,330.401 291.325,325.401 290,320.5C 289.178,322.788 288.511,325.122 288,327.5C 287.859,323.411 287.692,319.411 287.5,315.5C 286.311,319.582 285.311,323.582 284.5,327.5C 284.815,323.629 284.482,319.962 283.5,316.5C 280.167,313.833 277.167,310.833 274.5,307.5C 276.258,307.877 277.925,308.544 279.5,309.5C 279.997,307.784 280.331,306.117 280.5,304.5C 279.167,304.167 277.833,303.833 276.5,303.5C 275.894,298.118 274.56,293.118 272.5,288.5C 273.5,288.5 274.5,288.5 275.5,288.5C 274.588,289.738 274.421,291.072 275,292.5C 279.124,296.413 283.457,300.079 288,303.5C 289.371,301.959 290.871,300.625 292.5,299.5C 294.394,298.952 296.06,297.952 297.5,296.5C 301.29,298.662 301.29,300.995 297.5,303.5C 297.569,305.278 297.903,307.111 298.5,309C 296.808,310.401 296.141,312.234 296.5,314.5C 297.585,322.727 297.252,330.894 295.5,339C 283.439,343.352 271.272,344.185 259,341.5C 258.713,339.109 258.213,336.776 257.5,334.5C 258.382,309.206 258.716,283.539 258.5,257.5 Z M 274.5,307.5 C 277.167,310.833 280.167,313.833 283.5,316.5C 283.666,320.514 283.499,324.514 283,328.5C 278.934,329.464 274.767,329.797 270.5,329.5C 270.334,321.493 270.5,313.493 271,305.5C 271.816,306.823 272.983,307.489 274.5,307.5 Z"/></g>
<g><path style="opacity:1" fill="#3b7281" d="M 274.5,307.5 C 272.983,307.489 271.816,306.823 271,305.5C 270.5,313.493 270.334,321.493 270.5,329.5C 268.983,321.684 268.15,313.684 268,305.5C 270.88,303.141 273.047,303.808 274.5,307.5 Z"/></g>
<g><path style="opacity:0.632" fill="#6d99a0" d="M 190.5,316.5 C 191.117,316.611 191.617,316.944 192,317.5C 192.829,322.533 192.662,327.533 191.5,332.5C 190.893,332.376 190.56,332.043 190.5,331.5C 191.751,326.631 191.751,321.631 190.5,316.5 Z"/></g>
<g><path style="opacity:0.617" fill="#77a0a8" d="M 283.5,316.5 C 284.482,319.962 284.815,323.629 284.5,327.5C 284.586,328.496 284.252,329.329 283.5,330C 278.98,330.814 274.646,330.647 270.5,329.5C 274.767,329.797 278.934,329.464 283,328.5C 283.499,324.514 283.666,320.514 283.5,316.5 Z"/></g>
<g><path style="opacity:1" fill="#195b71" d="M 220.5,355.5 C 221.038,357.117 221.371,358.784 221.5,360.5C 223.288,360.215 224.955,360.548 226.5,361.5C 227.326,362.451 227.492,363.451 227,364.5C 223.585,364.003 220.918,362.336 219,359.5C 218.837,362.182 217.504,363.849 215,364.5C 212.863,363.923 210.696,363.59 208.5,363.5C 206.896,362.713 206.229,361.38 206.5,359.5C 207.124,341.203 206.457,323.036 204.5,305C 204.833,304.5 205.167,304 205.5,303.5C 207.042,304.747 208.542,304.747 210,303.5C 210.333,304.167 210.667,304.833 211,305.5C 211.612,302.968 213.112,302.135 215.5,303C 214.69,306.931 214.024,310.931 213.5,315C 214.897,319.086 216.064,323.253 217,327.5C 217.333,336.5 217.667,345.5 218,354.5C 218.671,355.252 219.504,355.586 220.5,355.5 Z"/></g>
<g><path style="opacity:1" fill="#366d7b" d="M 239.5,339.5 C 246.827,338.329 249.994,341.329 249,348.5C 242.865,354.645 238.699,353.645 236.5,345.5C 236.628,343.045 237.628,341.045 239.5,339.5 Z"/></g>
<g><path style="opacity:1" fill="#2a6275" d="M 237.5,391.5 C 244.449,393.744 251.449,393.91 258.5,392C 261.051,390.484 260.718,389.651 257.5,389.5C 257.36,387.876 258.027,386.71 259.5,386C 259.167,385.667 258.833,385.333 258.5,385C 253.573,385.266 248.573,384.932 243.5,384C 241.984,382.103 241.317,379.936 241.5,377.5C 245.126,383.784 250.126,385.117 256.5,381.5C 257.906,381.027 258.573,380.027 258.5,378.5C 259.33,372.158 256.663,368.158 250.5,366.5C 244.639,367.357 241.639,370.69 241.5,376.5C 240.778,376.082 240.278,375.416 240,374.5C 239.612,375.428 238.945,376.095 238,376.5C 236.079,374.997 233.912,374.331 231.5,374.5C 231.5,377.833 231.5,381.167 231.5,384.5C 230.135,381.401 229.135,378.068 228.5,374.5C 222.018,370.264 215.351,366.597 208.5,363.5C 210.696,363.59 212.863,363.923 215,364.5C 217.504,363.849 218.837,362.182 219,359.5C 220.918,362.336 223.585,364.003 227,364.5C 227.492,363.451 227.326,362.451 226.5,361.5C 224.955,360.548 223.288,360.215 221.5,360.5C 221.371,358.784 221.038,357.117 220.5,355.5C 224.818,356.992 228.818,358.992 232.5,361.5C 234.743,362.858 236.409,362.192 237.5,359.5C 248.633,351.901 258.8,353.234 268,363.5C 274.417,377.34 270.917,387.84 257.5,395C 250.054,397.583 243.388,396.416 237.5,391.5 Z M 258.5,378.5 C 257.094,378.973 256.427,379.973 256.5,381.5C 250.126,385.117 245.126,383.784 241.5,377.5C 241.5,377.167 241.5,376.833 241.5,376.5C 241.639,370.69 244.639,367.357 250.5,366.5C 256.663,368.158 259.33,372.158 258.5,378.5 Z"/></g>
<g><path style="opacity:0.4" fill="#b4d0d5" d="M 237.5,359.5 C 236.409,362.192 234.743,362.858 232.5,361.5C 234.167,360.833 235.833,360.167 237.5,359.5 Z"/></g>
<g><path style="opacity:0.545" fill="#84a9ae" d="M 258.5,378.5 C 258.573,380.027 257.906,381.027 256.5,381.5C 256.427,379.973 257.094,378.973 258.5,378.5 Z"/></g>
<g><path style="opacity:1" fill="#18576c" d="M 241.5,376.5 C 241.5,376.833 241.5,377.167 241.5,377.5C 241.317,379.936 241.984,382.103 243.5,384C 248.573,384.932 253.573,385.266 258.5,385C 258.833,385.333 259.167,385.667 259.5,386C 258.027,386.71 257.36,387.876 257.5,389.5C 260.718,389.651 261.051,390.484 258.5,392C 251.449,393.91 244.449,393.744 237.5,391.5C 234.781,389.781 232.781,387.447 231.5,384.5C 231.5,381.167 231.5,377.833 231.5,374.5C 233.912,374.331 236.079,374.997 238,376.5C 238.945,376.095 239.612,375.428 240,374.5C 240.278,375.416 240.778,376.082 241.5,376.5 Z"/></g>
</svg>